# Blender v3.1.2 OBJ File: ''
# www.blender.org
mtllib camera.mtl
o Cube_Cube.001
v 0.000000 0.000000 1.000000
v -1.000000 -1.000000 -1.000000
v -1.000000 1.000000 -1.000000
v 1.000000 -1.000000 -1.000000
v 1.000000 1.000000 -1.000000
vt 0.625000 0.000000
vt 0.625000 0.250000
vt 0.375000 0.250000
vt 0.625000 0.500000
vt 0.375000 0.500000
vt 0.375000 0.750000
vt 0.125000 0.500000
vt 0.125000 0.750000
vt 0.875000 0.500000
vt 0.625000 0.750000
vn -0.8944 0.0000 0.4472
vn 0.0000 0.0000 -1.0000
vn 0.8944 0.0000 0.4472
vn 0.0000 -0.8944 0.4472
vn 0.0000 0.8944 0.4472
usemtl None
s off
f 1/1/1 3/2/1 2/3/1
f 2/3/2 3/2/2 5/4/2 4/5/2
f 4/5/3 5/4/3 1/6/3
f 2/7/4 4/5/4 1/8/4
f 5/4/5 3/9/5 1/10/5
