{
    "asset" : {
        "generator" : "Khronos glTF Blender I/O v1.8.19",
        "version" : "2.0"
    },
    "extensionsUsed" : [
        "KHR_lights_punctual"
    ],
    "extensionsRequired" : [
        "KHR_lights_punctual"
    ],
    "extensions" : {
        "KHR_lights_punctual" : {
            "lights" : [
                {
                    "color" : [
                        0.4291219413280487,
                        1,
                        0
                    ],
                    "intensity" : 1033.5,
                    "type" : "point",
                    "name" : "Light"
                }
            ]
        }
    },
    "scene" : 0,
    "scenes" : [
        {
            "name" : "Scene",
            "nodes" : [
                1,
                5,
                6,
                9
            ]
        }
    ],
    "nodes" : [
        {
            "extensions" : {
                "KHR_lights_punctual" : {
                    "light" : 0
                }
            },
            "name" : "Light_Orientation",
            "rotation" : [
                -0.7071067690849304,
                0,
                0,
                0.7071067690849304
            ]
        },
        {
            "children" : [
                0
            ],
            "name" : "Light",
            "rotation" : [
                0.16907575726509094,
                0.7558803558349609,
                -0.27217137813568115,
                0.570947527885437
            ],
            "translation" : [
                0.021820325404405594,
                0.6448922157287598,
                0.3696070611476898
            ]
        },
        {
            "mesh" : 0,
            "name" : "Cube",
            "rotation" : [
                -0.362167090177536,
                -0.24750304222106934,
                -0.341385155916214,
                0.83128422498703
            ],
            "scale" : [
                1.0122984647750854,
                1.012298345565796,
                1.012298345565796
            ],
            "translation" : [
                0.712241530418396,
                1.2732971906661987,
                -1.6787362098693848
            ]
        },
        {
            "mesh" : 1,
            "name" : "Icosphere",
            "rotation" : [
                -0.10735946148633957,
                -0.07336888462305069,
                -0.1011989489197731,
                0.9863314628601074
            ],
            "scale" : [
                0.5183191895484924,
                0.518319308757782,
                0.518319308757782
            ],
            "translation" : [
                -0.8380723595619202,
                -1.145606517791748,
                1.7196441888809204
            ]
        },
        {
            "children" : [
                3
            ],
            "name" : "Empty.001",
            "rotation" : [
                0.34258121252059937,
                0.23411814868450165,
                0.32292309403419495,
                0.8506159782409668
            ],
            "translation" : [
                -0.9690355062484741,
                0.2220437228679657,
                0.8670498132705688
            ]
        },
        {
            "children" : [
                2,
                4
            ],
            "name" : "Empty",
            "rotation" : [
                -0.1338108628988266,
                -0.09144560247659683,
                -0.12613247334957123,
                0.9786843061447144
            ],
            "translation" : [
                0.1692296415567398,
                -0.1189628392457962,
                -0.09328468888998032
            ]
        },
        {
            "mesh" : 2,
            "name" : "Suzanne",
            "rotation" : [
                0.09338437020778656,
                0.5908085703849792,
                0.2946223318576813,
                0.7452666759490967
            ],
            "scale" : [
                1.19678795337677,
                1.19678795337677,
                1.19678795337677
            ],
            "translation" : [
                -1.8596839904785156,
                0.5673632621765137,
                1.5615637302398682
            ]
        },
        {
            "camera" : 0,
            "name" : "Camera_Orientation",
            "rotation" : [
                -0.7071067690849304,
                0,
                0,
                0.7071067690849304
            ]
        },
        {
            "children" : [
                7
            ],
            "name" : "Camera",
            "rotation" : [
                0.4801042675971985,
                0.3581297695636749,
                -0.19828809797763824,
                0.7758381366729736
            ],
            "translation" : [
                7.335636615753174,
                5.417148590087891,
                6.618163108825684
            ]
        },
        {
            "children" : [
                8
            ],
            "name" : "Empty.002",
            "rotation" : [
                0,
                0.10290121287107468,
                0,
                0.9946916103363037
            ],
            "translation" : [
                -0.3425505757331848,
                0.12309581786394119,
                0.44676128029823303
            ]
        }
    ],
    "cameras" : [
        {
            "name" : "Camera",
            "perspective" : {
                "aspectRatio" : 1.7777777777777777,
                "yfov" : 0.578863678051448,
                "zfar" : 100,
                "znear" : 0.10000000149011612
            },
            "type" : "perspective"
        }
    ],
    "materials" : [
        {
            "doubleSided" : true,
            "name" : "Material",
            "pbrMetallicRoughness" : {
                "baseColorFactor" : [
                    0.800000011920929,
                    0.800000011920929,
                    0.800000011920929,
                    1
                ],
                "metallicFactor" : 0,
                "roughnessFactor" : 0.4000000059604645
            }
        }
    ],
    "meshes" : [
        {
            "name" : "Cube",
            "primitives" : [
                {
                    "attributes" : {
                        "POSITION" : 0,
                        "NORMAL" : 1,
                        "TEXCOORD_0" : 2
                    },
                    "indices" : 3,
                    "material" : 0
                }
            ]
        },
        {
            "name" : "Icosphere",
            "primitives" : [
                {
                    "attributes" : {
                        "POSITION" : 4,
                        "NORMAL" : 5,
                        "TEXCOORD_0" : 6
                    },
                    "indices" : 7
                }
            ]
        },
        {
            "name" : "Suzanne",
            "primitives" : [
                {
                    "attributes" : {
                        "POSITION" : 8,
                        "NORMAL" : 9,
                        "TEXCOORD_0" : 10
                    },
                    "indices" : 11
                }
            ]
        }
    ],
    "accessors" : [
        {
            "bufferView" : 0,
            "componentType" : 5126,
            "count" : 5549,
            "max" : [
                2.165208101272583,
                1.8020554780960083,
                2.4186432361602783
            ],
            "min" : [
                -1.6008355617523193,
                -1.5088869333267212,
                -1.5803005695343018
            ],
            "type" : "VEC3"
        },
        {
            "bufferView" : 1,
            "componentType" : 5126,
            "count" : 5549,
            "type" : "VEC3"
        },
        {
            "bufferView" : 2,
            "componentType" : 5126,
            "count" : 5549,
            "type" : "VEC2"
        },
        {
            "bufferView" : 3,
            "componentType" : 5123,
            "count" : 6306,
            "type" : "SCALAR"
        },
        {
            "bufferView" : 4,
            "componentType" : 5126,
            "count" : 240,
            "max" : [
                0.9510578513145447,
                1,
                0.9999999403953552
            ],
            "min" : [
                -0.9510578513145447,
                -1,
                -0.9999999403953552
            ],
            "type" : "VEC3"
        },
        {
            "bufferView" : 5,
            "componentType" : 5126,
            "count" : 240,
            "type" : "VEC3"
        },
        {
            "bufferView" : 6,
            "componentType" : 5126,
            "count" : 240,
            "type" : "VEC2"
        },
        {
            "bufferView" : 7,
            "componentType" : 5123,
            "count" : 240,
            "type" : "SCALAR"
        },
        {
            "bufferView" : 8,
            "componentType" : 5126,
            "count" : 556,
            "max" : [
                1.3671875,
                0.984375,
                0.8515625
            ],
            "min" : [
                -1.3671875,
                -0.984375,
                -0.8515625
            ],
            "type" : "VEC3"
        },
        {
            "bufferView" : 9,
            "componentType" : 5126,
            "count" : 556,
            "type" : "VEC3"
        },
        {
            "bufferView" : 10,
            "componentType" : 5126,
            "count" : 556,
            "type" : "VEC2"
        },
        {
            "bufferView" : 11,
            "componentType" : 5123,
            "count" : 2904,
            "type" : "SCALAR"
        }
    ],
    "bufferViews" : [
        {
            "buffer" : 0,
            "byteLength" : 66588,
            "byteOffset" : 0
        },
        {
            "buffer" : 0,
            "byteLength" : 66588,
            "byteOffset" : 66588
        },
        {
            "buffer" : 0,
            "byteLength" : 44392,
            "byteOffset" : 133176
        },
        {
            "buffer" : 0,
            "byteLength" : 12612,
            "byteOffset" : 177568
        },
        {
            "buffer" : 0,
            "byteLength" : 2880,
            "byteOffset" : 190180
        },
        {
            "buffer" : 0,
            "byteLength" : 2880,
            "byteOffset" : 193060
        },
        {
            "buffer" : 0,
            "byteLength" : 1920,
            "byteOffset" : 195940
        },
        {
            "buffer" : 0,
            "byteLength" : 480,
            "byteOffset" : 197860
        },
        {
            "buffer" : 0,
            "byteLength" : 6672,
            "byteOffset" : 198340
        },
        {
            "buffer" : 0,
            "byteLength" : 6672,
            "byteOffset" : 205012
        },
        {
            "buffer" : 0,
            "byteLength" : 4448,
            "byteOffset" : 211684
        },
        {
            "buffer" : 0,
            "byteLength" : 5808,
            "byteOffset" : 216132
        }
    ],
    "buffers" : [
        {
            "byteLength" : 221940,
            "uri" : "data:application/octet-stream;base64,"
        }
    ]
}
