{
    "asset" : {
        "generator" : "Khronos glTF Blender I/O v1.8.19",
        "version" : "2.0"
    },
    "extensionsUsed" : [
        "KHR_lights_punctual"
    ],
    "extensionsRequired" : [
        "KHR_lights_punctual"
    ],
    "extensions" : {
        "KHR_lights_punctual" : {
            "lights" : [
                {
                    "color" : [
                        0.4291219413280487,
                        1,
                        0
                    ],
                    "intensity" : 1033.5,
                    "type" : "point",
                    "name" : "Light"
                },
                {
                    "color" : [
                        1,
                        1,
                        1
                    ],
                    "intensity" : 1,
                    "type" : "directional",
                    "name" : "Sun"
                }
            ]
        }
    },
    "scene" : 0,
    "scenes" : [
        {
            "name" : "Scene",
            "nodes" : [
                1,
                5,
                6,
                9,
                11,
                12
            ]
        }
    ],
    "nodes" : [
        {
            "extensions" : {
                "KHR_lights_punctual" : {
                    "light" : 0
                }
            },
            "name" : "Light_Orientation",
            "rotation" : [
                -0.7071067690849304,
                0,
                0,
                0.7071067690849304
            ]
        },
        {
            "children" : [
                0
            ],
            "name" : "Light",
            "rotation" : [
                0.16907575726509094,
                0.7558803558349609,
                -0.27217137813568115,
                0.570947527885437
            ],
            "translation" : [
                0.021820325404405594,
                0.6448922157287598,
                0.3696070611476898
            ]
        },
        {
            "mesh" : 0,
            "name" : "Cube",
            "rotation" : [
                -0.362167090177536,
                -0.24750304222106934,
                -0.341385155916214,
                0.83128422498703
            ],
            "scale" : [
                1.0122984647750854,
                1.012298345565796,
                1.012298345565796
            ],
            "translation" : [
                0.712241530418396,
                1.2732971906661987,
                -1.6787362098693848
            ]
        },
        {
            "mesh" : 1,
            "name" : "Icosphere",
            "rotation" : [
                -0.10735946148633957,
                -0.07336888462305069,
                -0.1011989489197731,
                0.9863314628601074
            ],
            "scale" : [
                0.5183191895484924,
                0.518319308757782,
                0.518319308757782
            ],
            "translation" : [
                -0.8380723595619202,
                -1.145606517791748,
                1.7196441888809204
            ]
        },
        {
            "children" : [
                3
            ],
            "name" : "Empty.001",
            "rotation" : [
                0.34258121252059937,
                0.23411814868450165,
                0.32292309403419495,
                0.8506159782409668
            ],
            "translation" : [
                -0.9690355062484741,
                0.2220437228679657,
                0.8670498132705688
            ]
        },
        {
            "children" : [
                2,
                4
            ],
            "name" : "Empty",
            "rotation" : [
                -0.1338108628988266,
                -0.09144560247659683,
                -0.12613247334957123,
                0.9786843061447144
            ],
            "translation" : [
                0.1692296415567398,
                -0.1189628392457962,
                -0.09328468888998032
            ]
        },
        {
            "mesh" : 2,
            "name" : "Suzanne",
            "rotation" : [
                0.09338437020778656,
                0.5908085703849792,
                0.2946223318576813,
                0.7452666759490967
            ],
            "scale" : [
                1.19678795337677,
                1.19678795337677,
                1.19678795337677
            ],
            "translation" : [
                -1.8596839904785156,
                0.5673632621765137,
                1.5615637302398682
            ]
        },
        {
            "camera" : 0,
            "name" : "Camera_Orientation",
            "rotation" : [
                -0.7071067690849304,
                0,
                0,
                0.7071067690849304
            ]
        },
        {
            "children" : [
                7
            ],
            "name" : "Camera",
            "rotation" : [
                0.4801042675971985,
                0.3581297695636749,
                -0.19828809797763824,
                0.7758381366729736
            ],
            "translation" : [
                7.335636615753174,
                5.417148590087891,
                6.618163108825684
            ]
        },
        {
            "children" : [
                8
            ],
            "name" : "Empty.002",
            "rotation" : [
                0,
                0.10290121287107468,
                0,
                0.9946916103363037
            ],
            "translation" : [
                -0.3425505757331848,
                0.12309581786394119,
                0.44676128029823303
            ]
        },
        {
            "extensions" : {
                "KHR_lights_punctual" : {
                    "light" : 1
                }
            },
            "name" : "Sun_Orientation",
            "rotation" : [
                -0.7071067690849304,
                0,
                0,
                0.7071067690849304
            ]
        },
        {
            "children" : [
                10
            ],
            "name" : "Sun"
        },
        {
            "mesh" : 3,
            "name" : "Suzanne.001",
            "rotation" : [
                -0.08700477331876755,
                0.5011151432991028,
                0.051024794578552246,
                0.8594825267791748
            ],
            "scale" : [
                1.19678795337677,
                1.19678795337677,
                1.19678795337677
            ],
            "translation" : [
                -1.5545322895050049,
                1.8533332347869873,
                -0.9339765310287476
            ]
        }
    ],
    "cameras" : [
        {
            "name" : "Camera",
            "perspective" : {
                "aspectRatio" : 1.7777777777777777,
                "yfov" : 0.578863678051448,
                "zfar" : 100,
                "znear" : 0.10000000149011612
            },
            "type" : "perspective"
        }
    ],
    "materials" : [
        {
            "emissiveFactor" : [
                0.06919172176404764,
                0.30000004172325134,
                0
            ],
            "name" : "Material",
            "pbrMetallicRoughness" : {
                "baseColorFactor" : [
                    0.8000000715255737,
                    0.0030990836676210165,
                    0,
                    1
                ],
                "metallicFactor" : 0,
                "roughnessFactor" : 0.4000000059604645
            }
        },
        {
            "doubleSided" : true,
            "emissiveFactor" : [
                1,
                1,
                1
            ],
            "emissiveTexture" : {
                "index" : 0
            },
            "name" : "Material.001",
            "normalTexture" : {
                "index" : 1,
                "scale" : 0.5
            },
            "pbrMetallicRoughness" : {
                "baseColorTexture" : {
                    "index" : 2
                },
                "metallicRoughnessTexture" : {
                    "index" : 3
                }
            }
        },
        {
            "doubleSided" : true,
            "name" : "Material.005",
            "pbrMetallicRoughness" : {
                "baseColorFactor" : [
                    0,
                    0.09035414457321167,
                    0.8000000715255737,
                    1
                ],
                "metallicFactor" : 0,
                "roughnessFactor" : 0.5
            }
        }
    ],
    "meshes" : [
        {
            "name" : "Cube",
            "primitives" : [
                {
                    "attributes" : {
                        "POSITION" : 0,
                        "NORMAL" : 1,
                        "TANGENT" : 2,
                        "TEXCOORD_0" : 3
                    },
                    "indices" : 4,
                    "material" : 0
                }
            ]
        },
        {
            "name" : "Icosphere",
            "primitives" : [
                {
                    "attributes" : {
                        "POSITION" : 5,
                        "NORMAL" : 6,
                        "TANGENT" : 7,
                        "TEXCOORD_0" : 8
                    },
                    "indices" : 9
                }
            ]
        },
        {
            "name" : "Suzanne",
            "primitives" : [
                {
                    "attributes" : {
                        "POSITION" : 10,
                        "NORMAL" : 11,
                        "TANGENT" : 12,
                        "TEXCOORD_0" : 13
                    },
                    "indices" : 14,
                    "material" : 1
                },
                {
                    "attributes" : {
                        "POSITION" : 15,
                        "NORMAL" : 16,
                        "TANGENT" : 17,
                        "TEXCOORD_0" : 18
                    },
                    "indices" : 19,
                    "material" : 2
                }
            ]
        },
        {
            "name" : "Suzanne.001",
            "primitives" : [
                {
                    "attributes" : {
                        "POSITION" : 20,
                        "NORMAL" : 21,
                        "TANGENT" : 22,
                        "TEXCOORD_0" : 23
                    },
                    "indices" : 24,
                    "material" : 1
                },
                {
                    "attributes" : {
                        "POSITION" : 25,
                        "NORMAL" : 26,
                        "TANGENT" : 27,
                        "TEXCOORD_0" : 28
                    },
                    "indices" : 29,
                    "material" : 2
                }
            ]
        }
    ],
    "textures" : [
        {
            "sampler" : 0,
            "source" : 0
        },
        {
            "sampler" : 0,
            "source" : 1
        },
        {
            "sampler" : 0,
            "source" : 2
        },
        {
            "sampler" : 0,
            "source" : 3
        }
    ],
    "images" : [
        {
            "bufferView" : 15,
            "mimeType" : "image/png",
            "name" : "Suzanne-emission"
        },
        {
            "bufferView" : 16,
            "mimeType" : "image/png",
            "name" : "Suzanne-nmap3"
        },
        {
            "bufferView" : 17,
            "mimeType" : "image/png",
            "name" : "Suzanne_diffuse"
        },
        {
            "bufferView" : 18,
            "mimeType" : "image/png",
            "name" : "Suzanne_metallicness-Suzanne_roughness"
        }
    ],
    "accessors" : [
        {
            "bufferView" : 0,
            "componentType" : 5126,
            "count" : 5549,
            "max" : [
                2.165208101272583,
                1.8020554780960083,
                2.4186432361602783
            ],
            "min" : [
                -1.6008355617523193,
                -1.5088869333267212,
                -1.5803005695343018
            ],
            "type" : "VEC3"
        },
        {
            "bufferView" : 1,
            "componentType" : 5126,
            "count" : 5549,
            "type" : "VEC3"
        },
        {
            "bufferView" : 2,
            "componentType" : 5126,
            "count" : 5549,
            "type" : "VEC4"
        },
        {
            "bufferView" : 3,
            "componentType" : 5126,
            "count" : 5549,
            "type" : "VEC2"
        },
        {
            "bufferView" : 4,
            "componentType" : 5123,
            "count" : 6306,
            "type" : "SCALAR"
        },
        {
            "bufferView" : 5,
            "componentType" : 5126,
            "count" : 240,
            "max" : [
                0.9510578513145447,
                1,
                0.9999999403953552
            ],
            "min" : [
                -0.9510578513145447,
                -1,
                -0.9999999403953552
            ],
            "type" : "VEC3"
        },
        {
            "bufferView" : 6,
            "componentType" : 5126,
            "count" : 240,
            "type" : "VEC3"
        },
        {
            "bufferView" : 7,
            "componentType" : 5126,
            "count" : 240,
            "type" : "VEC4"
        },
        {
            "bufferView" : 8,
            "componentType" : 5126,
            "count" : 240,
            "type" : "VEC2"
        },
        {
            "bufferView" : 9,
            "componentType" : 5123,
            "count" : 240,
            "type" : "SCALAR"
        },
        {
            "bufferView" : 10,
            "componentType" : 5126,
            "count" : 2855,
            "max" : [
                1.325934886932373,
                0.9392362236976624,
                0.8223199844360352
            ],
            "min" : [
                -1.325934886932373,
                -0.4283854067325592,
                -0.7782661318778992
            ],
            "type" : "VEC3"
        },
        {
            "bufferView" : 11,
            "componentType" : 5126,
            "count" : 2855,
            "type" : "VEC3"
        },
        {
            "bufferView" : 12,
            "componentType" : 5126,
            "count" : 2855,
            "type" : "VEC4"
        },
        {
            "bufferView" : 13,
            "componentType" : 5126,
            "count" : 2855,
            "type" : "VEC2"
        },
        {
            "bufferView" : 14,
            "componentType" : 5123,
            "count" : 9948,
            "type" : "SCALAR"
        },
        {
            "bufferView" : 19,
            "componentType" : 5126,
            "count" : 546,
            "max" : [
                0.3298611342906952,
                -0.2864062488079071,
                0.7500001192092896
            ],
            "min" : [
                -0.3298611640930176,
                -0.9704862236976624,
                0.1115451455116272
            ],
            "type" : "VEC3"
        },
        {
            "bufferView" : 20,
            "componentType" : 5126,
            "count" : 546,
            "type" : "VEC3"
        },
        {
            "bufferView" : 21,
            "componentType" : 5126,
            "count" : 546,
            "type" : "VEC4"
        },
        {
            "bufferView" : 22,
            "componentType" : 5126,
            "count" : 546,
            "type" : "VEC2"
        },
        {
            "bufferView" : 23,
            "componentType" : 5123,
            "count" : 1860,
            "type" : "SCALAR"
        },
        {
            "bufferView" : 24,
            "componentType" : 5126,
            "count" : 481,
            "max" : [
                1.3671875,
                0.984375,
                0.8515625
            ],
            "min" : [
                -1.3671875,
                -0.4609375,
                -0.8515625
            ],
            "type" : "VEC3"
        },
        {
            "bufferView" : 25,
            "componentType" : 5126,
            "count" : 481,
            "type" : "VEC3"
        },
        {
            "bufferView" : 26,
            "componentType" : 5126,
            "count" : 481,
            "type" : "VEC4"
        },
        {
            "bufferView" : 27,
            "componentType" : 5126,
            "count" : 481,
            "type" : "VEC2"
        },
        {
            "bufferView" : 28,
            "componentType" : 5123,
            "count" : 2442,
            "type" : "SCALAR"
        },
        {
            "bufferView" : 29,
            "componentType" : 5126,
            "count" : 88,
            "max" : [
                0.3671875,
                -0.28125,
                0.75
            ],
            "min" : [
                -0.3671875,
                -0.984375,
                0.1640625
            ],
            "type" : "VEC3"
        },
        {
            "bufferView" : 30,
            "componentType" : 5126,
            "count" : 88,
            "type" : "VEC3"
        },
        {
            "bufferView" : 31,
            "componentType" : 5126,
            "count" : 88,
            "type" : "VEC4"
        },
        {
            "bufferView" : 32,
            "componentType" : 5126,
            "count" : 88,
            "type" : "VEC2"
        },
        {
            "bufferView" : 33,
            "componentType" : 5123,
            "count" : 462,
            "type" : "SCALAR"
        }
    ],
    "bufferViews" : [
        {
            "buffer" : 0,
            "byteLength" : 66588,
            "byteOffset" : 0
        },
        {
            "buffer" : 0,
            "byteLength" : 66588,
            "byteOffset" : 66588
        },
        {
            "buffer" : 0,
            "byteLength" : 88784,
            "byteOffset" : 133176
        },
        {
            "buffer" : 0,
            "byteLength" : 44392,
            "byteOffset" : 221960
        },
        {
            "buffer" : 0,
            "byteLength" : 12612,
            "byteOffset" : 266352
        },
        {
            "buffer" : 0,
            "byteLength" : 2880,
            "byteOffset" : 278964
        },
        {
            "buffer" : 0,
            "byteLength" : 2880,
            "byteOffset" : 281844
        },
        {
            "buffer" : 0,
            "byteLength" : 3840,
            "byteOffset" : 284724
        },
        {
            "buffer" : 0,
            "byteLength" : 1920,
            "byteOffset" : 288564
        },
        {
            "buffer" : 0,
            "byteLength" : 480,
            "byteOffset" : 290484
        },
        {
            "buffer" : 0,
            "byteLength" : 34260,
            "byteOffset" : 290964
        },
        {
            "buffer" : 0,
            "byteLength" : 34260,
            "byteOffset" : 325224
        },
        {
            "buffer" : 0,
            "byteLength" : 45680,
            "byteOffset" : 359484
        },
        {
            "buffer" : 0,
            "byteLength" : 22840,
            "byteOffset" : 405164
        },
        {
            "buffer" : 0,
            "byteLength" : 19896,
            "byteOffset" : 428004
        },
        {
            "buffer" : 0,
            "byteLength" : 20566,
            "byteOffset" : 447900
        },
        {
            "buffer" : 0,
            "byteLength" : 1406948,
            "byteOffset" : 468468
        },
        {
            "buffer" : 0,
            "byteLength" : 58883,
            "byteOffset" : 1875416
        },
        {
            "buffer" : 0,
            "byteLength" : 236269,
            "byteOffset" : 1934300
        },
        {
            "buffer" : 0,
            "byteLength" : 6552,
            "byteOffset" : 2170572
        },
        {
            "buffer" : 0,
            "byteLength" : 6552,
            "byteOffset" : 2177124
        },
        {
            "buffer" : 0,
            "byteLength" : 8736,
            "byteOffset" : 2183676
        },
        {
            "buffer" : 0,
            "byteLength" : 4368,
            "byteOffset" : 2192412
        },
        {
            "buffer" : 0,
            "byteLength" : 3720,
            "byteOffset" : 2196780
        },
        {
            "buffer" : 0,
            "byteLength" : 5772,
            "byteOffset" : 2200500
        },
        {
            "buffer" : 0,
            "byteLength" : 5772,
            "byteOffset" : 2206272
        },
        {
            "buffer" : 0,
            "byteLength" : 7696,
            "byteOffset" : 2212044
        },
        {
            "buffer" : 0,
            "byteLength" : 3848,
            "byteOffset" : 2219740
        },
        {
            "buffer" : 0,
            "byteLength" : 4884,
            "byteOffset" : 2223588
        },
        {
            "buffer" : 0,
            "byteLength" : 1056,
            "byteOffset" : 2228472
        },
        {
            "buffer" : 0,
            "byteLength" : 1056,
            "byteOffset" : 2229528
        },
        {
            "buffer" : 0,
            "byteLength" : 1408,
            "byteOffset" : 2230584
        },
        {
            "buffer" : 0,
            "byteLength" : 704,
            "byteOffset" : 2231992
        },
        {
            "buffer" : 0,
            "byteLength" : 924,
            "byteOffset" : 2232696
        }
    ],
    "samplers" : [
        {
            "magFilter" : 9729,
            "minFilter" : 9987
        }
    ],
    "buffers" : [
        {
            "byteLength" : 2233620,
            "uri" : "data:application/octet-stream;base64,"
        }
    ]
}
